<?xml version="1.0" encoding="UTF-8"?>
<svg width="32" height="32" viewBox="0 0 32 32" fill="none" xmlns="http://www.w3.org/2000/svg">
  <rect width="32" height="32" rx="4" fill="#1F2937"/>
  <path d="M16 6C10.477 6 6 10.477 6 16C6 21.523 10.477 26 16 26C21.523 26 26 21.523 26 16C26 10.477 21.523 6 16 6ZM16.5 20.5H15.5V19.5H16.5V20.5ZM18.375 14.625L17.625 15.4C17.025 16 16.5 16.5 16.5 18H15.5V17.75C15.5 16.625 16.025 15.625 16.625 15.025L17.675 13.95C17.975 13.65 18.125 13.25 18.125 12.75C18.125 11.65 17.225 10.75 16.125 10.75C15.025 10.75 14.125 11.65 14.125 12.75H13.125C13.125 11.1 14.475 9.75 16.125 9.75C17.775 9.75 19.125 11.1 19.125 12.75C19.125 13.45 18.875 14.025 18.375 14.625Z" fill="white"/>
</svg>
